# xmcd CD database file
#
# Track frame offsets:
#	150
#	11637
#	23078
#	37970
#	51447
#	66057
#	79361
#	91927
#	105683
#	117584
#	137964
#	156683
#	169860
#	184612
#	198607
#	213060
#	226418
#	241053
#	255463
#	269489
#
# Disc length: 3790 seconds
#
# Revision: 0
# Processed by: cddbd v1.5.2PL0 Copyright (c) Steve Scherf et al.
# Submitted via: CDex 1.70beta2
#
DISCID=1b0ecc14
DTITLE=Coleman Hawkins - Jazz Roads CD132 - Swing - Coleman Hawkins Vol.3 (1939-43)
DYEAR=2006
DGENRE=Jazz
TTITLE0=Coleman Hawkins And His Orchestra - Meet Doctor Foo
TTITLE1=Coleman Hawkins And His Orchestra - Fine Dinner
TTITLE2=Coleman Hawkins And His Orchestra - She's Funny That Way
TTITLE3=Coleman Hawkins And His Orchestra - Body And Soul
TTITLE4=Coleman Hawkins All+Star Octet - When Day Is Done
TTITLE5=Coleman Hawkins All+Star Octet - The Sheik Of Araby
TTITLE6=Coleman Hawkins All+Star Octet - My Blue Heaven
TTITLE7=Coleman Hawkins All+Star Octet - Bouncing With Bean
TTITLE8=The Chocolate Dandies - Smack
TTITLE9=The Chocolate Dandies - I Surrender Dear
TTITLE10=The Chocolate Dandies - I Can't Believe That You're In Love With Me
TTITLE11=The Chocolate Dandies - Dedication
TTITLE12=Coleman Hawkins And His Orchestra - Passin' It Around
TTITLE13=Coleman Hawkins And His Orchestra - Serenade To A Sleeping Beauty
TTITLE14=Coleman Hawkins And His Orchestra - Rocky Comfort
TTITLE15=Coleman Hawkins And His Orchestra - Forgive A Fool
TTITLE16=Leonard Feather’s All Stars  - Esquire Bounce
TTITLE17=Leonard Feather’s All Stars  - Boff Boff
TTITLE18=Leonard Feather’s All Stars  - My Ideal
TTITLE19=Leonard Feather’s All Stars  - Esquire Blues
EXTD=YEAR: 2006
EXTT0=
EXTT1=
EXTT2=
EXTT3=
EXTT4=
EXTT5=
EXTT6=
EXTT7=
EXTT8=
EXTT9=
EXTT10=
EXTT11=
EXTT12=
EXTT13=
EXTT14=
EXTT15=
EXTT16=
EXTT17=
EXTT18=
EXTT19=
PLAYORDER=
